<mxfile host="app.diagrams.net" modified="2023-03-25T12:39:03.722Z" agent="Mozilla/5.0 (Windows NT 10.0; Win64; x64) AppleWebKit/537.36 (KHTML, like Gecko) Chrome/111.0.0.0 Safari/537.36" etag="5D1QRUDj0N1O_3j2Wt5a" version="21.1.1" type="github">
  <diagram id="C5RBs43oDa-KdzZeNtuy" name="Page-1">
    <mxGraphModel dx="1238" dy="614" grid="1" gridSize="10" guides="1" tooltips="1" connect="1" arrows="1" fold="1" page="1" pageScale="1" pageWidth="827" pageHeight="1169" math="0" shadow="0">
      <root>
        <mxCell id="WIyWlLk6GJQsqaUBKTNV-0" />
        <mxCell id="WIyWlLk6GJQsqaUBKTNV-1" parent="WIyWlLk6GJQsqaUBKTNV-0" />
        <mxCell id="RBDTOj8f1NzHLh4YGUHm-1" value="" style="rounded=1;whiteSpace=wrap;html=1;" vertex="1" parent="WIyWlLk6GJQsqaUBKTNV-1">
          <mxGeometry x="114" y="90" width="600" height="520" as="geometry" />
        </mxCell>
        <mxCell id="RBDTOj8f1NzHLh4YGUHm-7" style="edgeStyle=orthogonalEdgeStyle;rounded=0;orthogonalLoop=1;jettySize=auto;html=1;exitX=0.5;exitY=0.5;exitDx=0;exitDy=0;exitPerimeter=0;entryX=0;entryY=0.5;entryDx=0;entryDy=0;" edge="1" parent="WIyWlLk6GJQsqaUBKTNV-1" source="RBDTOj8f1NzHLh4YGUHm-2" target="RBDTOj8f1NzHLh4YGUHm-6">
          <mxGeometry relative="1" as="geometry">
            <Array as="points">
              <mxPoint x="140" y="348" />
              <mxPoint x="140" y="170" />
            </Array>
          </mxGeometry>
        </mxCell>
        <mxCell id="RBDTOj8f1NzHLh4YGUHm-2" value="Client&lt;br&gt;" style="shape=umlActor;verticalLabelPosition=bottom;verticalAlign=top;html=1;outlineConnect=0;" vertex="1" parent="WIyWlLk6GJQsqaUBKTNV-1">
          <mxGeometry x="40" y="317.5" width="30" height="60" as="geometry" />
        </mxCell>
        <mxCell id="RBDTOj8f1NzHLh4YGUHm-3" value="Ticket Vendor Machine" style="text;html=1;strokeColor=none;fillColor=none;align=center;verticalAlign=middle;whiteSpace=wrap;rounded=0;" vertex="1" parent="WIyWlLk6GJQsqaUBKTNV-1">
          <mxGeometry x="354" y="585" width="146" height="30" as="geometry" />
        </mxCell>
        <mxCell id="RBDTOj8f1NzHLh4YGUHm-28" style="edgeStyle=orthogonalEdgeStyle;rounded=0;orthogonalLoop=1;jettySize=auto;html=1;exitX=0.5;exitY=0.5;exitDx=0;exitDy=0;exitPerimeter=0;entryX=1;entryY=0.5;entryDx=0;entryDy=0;" edge="1" parent="WIyWlLk6GJQsqaUBKTNV-1" source="RBDTOj8f1NzHLh4YGUHm-4" target="RBDTOj8f1NzHLh4YGUHm-29">
          <mxGeometry relative="1" as="geometry">
            <mxPoint x="590" y="295" as="targetPoint" />
          </mxGeometry>
        </mxCell>
        <mxCell id="RBDTOj8f1NzHLh4YGUHm-4" value="Bank" style="shape=umlActor;verticalLabelPosition=bottom;verticalAlign=top;html=1;outlineConnect=0;" vertex="1" parent="WIyWlLk6GJQsqaUBKTNV-1">
          <mxGeometry x="750" y="192.5" width="30" height="60" as="geometry" />
        </mxCell>
        <mxCell id="RBDTOj8f1NzHLh4YGUHm-31" style="edgeStyle=orthogonalEdgeStyle;rounded=0;orthogonalLoop=1;jettySize=auto;html=1;exitX=0.5;exitY=0.5;exitDx=0;exitDy=0;exitPerimeter=0;entryX=1;entryY=0.5;entryDx=0;entryDy=0;" edge="1" parent="WIyWlLk6GJQsqaUBKTNV-1" source="RBDTOj8f1NzHLh4YGUHm-5" target="RBDTOj8f1NzHLh4YGUHm-15">
          <mxGeometry relative="1" as="geometry" />
        </mxCell>
        <mxCell id="RBDTOj8f1NzHLh4YGUHm-5" value="Digital Wallet" style="shape=umlActor;verticalLabelPosition=bottom;verticalAlign=top;html=1;outlineConnect=0;" vertex="1" parent="WIyWlLk6GJQsqaUBKTNV-1">
          <mxGeometry x="750" y="390" width="30" height="60" as="geometry" />
        </mxCell>
        <mxCell id="RBDTOj8f1NzHLh4YGUHm-6" value="Buy ticket" style="ellipse;whiteSpace=wrap;html=1;" vertex="1" parent="WIyWlLk6GJQsqaUBKTNV-1">
          <mxGeometry x="180" y="147.5" width="100" height="45" as="geometry" />
        </mxCell>
        <mxCell id="RBDTOj8f1NzHLh4YGUHm-10" value="Select Destination" style="ellipse;whiteSpace=wrap;html=1;" vertex="1" parent="WIyWlLk6GJQsqaUBKTNV-1">
          <mxGeometry x="390" y="147.5" width="110" height="45" as="geometry" />
        </mxCell>
        <mxCell id="RBDTOj8f1NzHLh4YGUHm-12" value="Select payment" style="ellipse;whiteSpace=wrap;html=1;" vertex="1" parent="WIyWlLk6GJQsqaUBKTNV-1">
          <mxGeometry x="180" y="272.5" width="100" height="45" as="geometry" />
        </mxCell>
        <mxCell id="RBDTOj8f1NzHLh4YGUHm-24" style="edgeStyle=orthogonalEdgeStyle;rounded=0;orthogonalLoop=1;jettySize=auto;html=1;exitX=0;exitY=0;exitDx=0;exitDy=0;entryX=0.5;entryY=1;entryDx=0;entryDy=0;" edge="1" parent="WIyWlLk6GJQsqaUBKTNV-1" source="RBDTOj8f1NzHLh4YGUHm-15" target="RBDTOj8f1NzHLh4YGUHm-12">
          <mxGeometry relative="1" as="geometry" />
        </mxCell>
        <mxCell id="RBDTOj8f1NzHLh4YGUHm-15" value="QR Code" style="ellipse;whiteSpace=wrap;html=1;" vertex="1" parent="WIyWlLk6GJQsqaUBKTNV-1">
          <mxGeometry x="380" y="460" width="110" height="45" as="geometry" />
        </mxCell>
        <mxCell id="RBDTOj8f1NzHLh4YGUHm-23" style="edgeStyle=orthogonalEdgeStyle;rounded=0;orthogonalLoop=1;jettySize=auto;html=1;exitX=0;exitY=0.5;exitDx=0;exitDy=0;entryX=1;entryY=0.5;entryDx=0;entryDy=0;" edge="1" parent="WIyWlLk6GJQsqaUBKTNV-1" source="RBDTOj8f1NzHLh4YGUHm-18" target="RBDTOj8f1NzHLh4YGUHm-12">
          <mxGeometry relative="1" as="geometry" />
        </mxCell>
        <mxCell id="RBDTOj8f1NzHLh4YGUHm-18" value="Credit card" style="ellipse;whiteSpace=wrap;html=1;" vertex="1" parent="WIyWlLk6GJQsqaUBKTNV-1">
          <mxGeometry x="330" y="272.5" width="110" height="45" as="geometry" />
        </mxCell>
        <mxCell id="RBDTOj8f1NzHLh4YGUHm-21" value="&amp;lt;&amp;lt;include&amp;gt;&amp;gt;" style="html=1;verticalAlign=bottom;labelBackgroundColor=none;endArrow=open;endFill=0;dashed=1;rounded=0;entryX=1;entryY=0.5;entryDx=0;entryDy=0;exitX=0;exitY=0.5;exitDx=0;exitDy=0;" edge="1" parent="WIyWlLk6GJQsqaUBKTNV-1" source="RBDTOj8f1NzHLh4YGUHm-10" target="RBDTOj8f1NzHLh4YGUHm-6">
          <mxGeometry x="-0.1333" width="160" relative="1" as="geometry">
            <mxPoint x="380" y="193" as="sourcePoint" />
            <mxPoint x="290" y="192.5" as="targetPoint" />
            <mxPoint as="offset" />
          </mxGeometry>
        </mxCell>
        <mxCell id="RBDTOj8f1NzHLh4YGUHm-22" value="&amp;lt;&amp;lt;include&amp;gt;&amp;gt;" style="html=1;verticalAlign=bottom;labelBackgroundColor=none;endArrow=open;endFill=0;dashed=1;rounded=0;entryX=0.5;entryY=1;entryDx=0;entryDy=0;exitX=0.5;exitY=0;exitDx=0;exitDy=0;" edge="1" parent="WIyWlLk6GJQsqaUBKTNV-1" source="RBDTOj8f1NzHLh4YGUHm-12" target="RBDTOj8f1NzHLh4YGUHm-6">
          <mxGeometry x="-0.1333" width="160" relative="1" as="geometry">
            <mxPoint x="380" y="305" as="sourcePoint" />
            <mxPoint x="290" y="305" as="targetPoint" />
            <mxPoint as="offset" />
          </mxGeometry>
        </mxCell>
        <mxCell id="RBDTOj8f1NzHLh4YGUHm-25" value="Extends" style="endArrow=block;endSize=16;endFill=0;html=1;rounded=0;entryX=0.5;entryY=0;entryDx=0;entryDy=0;exitX=0.5;exitY=1;exitDx=0;exitDy=0;" edge="1" parent="WIyWlLk6GJQsqaUBKTNV-1" source="RBDTOj8f1NzHLh4YGUHm-18" target="RBDTOj8f1NzHLh4YGUHm-27">
          <mxGeometry width="160" relative="1" as="geometry">
            <mxPoint x="330" y="330" as="sourcePoint" />
            <mxPoint x="490" y="330" as="targetPoint" />
          </mxGeometry>
        </mxCell>
        <mxCell id="RBDTOj8f1NzHLh4YGUHm-27" value="Card Series" style="ellipse;whiteSpace=wrap;html=1;" vertex="1" parent="WIyWlLk6GJQsqaUBKTNV-1">
          <mxGeometry x="380" y="370" width="110" height="45" as="geometry" />
        </mxCell>
        <mxCell id="RBDTOj8f1NzHLh4YGUHm-30" style="edgeStyle=orthogonalEdgeStyle;rounded=0;orthogonalLoop=1;jettySize=auto;html=1;exitX=0;exitY=0.5;exitDx=0;exitDy=0;entryX=1;entryY=0.5;entryDx=0;entryDy=0;" edge="1" parent="WIyWlLk6GJQsqaUBKTNV-1" source="RBDTOj8f1NzHLh4YGUHm-29" target="RBDTOj8f1NzHLh4YGUHm-27">
          <mxGeometry relative="1" as="geometry">
            <mxPoint x="430" y="270" as="targetPoint" />
          </mxGeometry>
        </mxCell>
        <mxCell id="RBDTOj8f1NzHLh4YGUHm-32" style="edgeStyle=orthogonalEdgeStyle;rounded=0;orthogonalLoop=1;jettySize=auto;html=1;exitX=0.5;exitY=1;exitDx=0;exitDy=0;entryX=1;entryY=0.5;entryDx=0;entryDy=0;" edge="1" parent="WIyWlLk6GJQsqaUBKTNV-1" source="RBDTOj8f1NzHLh4YGUHm-29" target="RBDTOj8f1NzHLh4YGUHm-15">
          <mxGeometry relative="1" as="geometry" />
        </mxCell>
        <mxCell id="RBDTOj8f1NzHLh4YGUHm-29" value="Banking System" style="ellipse;whiteSpace=wrap;html=1;" vertex="1" parent="WIyWlLk6GJQsqaUBKTNV-1">
          <mxGeometry x="530" y="200" width="110" height="45" as="geometry" />
        </mxCell>
      </root>
    </mxGraphModel>
  </diagram>
</mxfile>
